<?xml version="1.0" encoding="iso-8859-1"?>
<!-- Generator: Adobe Illustrator 19.0.0, SVG Export Plug-In . SVG Version: 6.00 Build 0)  -->
<svg version="1.1" id="Capa_1" xmlns="http://www.w3.org/2000/svg" xmlns:xlink="http://www.w3.org/1999/xlink" x="0px" y="0px"
	 viewBox="0 0 512 512" style="enable-background:new 0 0 512 512;" xml:space="preserve">
<g>
	<g>
		<path d="M332.036,131.7l-0.179-0.067c-13.4-5.033-22.86-17.193-24.707-31.156h-102.3c-1.847,13.963-11.306,26.123-24.704,31.155
			l-0.185,0.069c-24.271,9.116-40.578,32.659-40.578,58.584v45.144l233.234-39.115v-6.029
			C372.617,164.359,356.31,140.816,332.036,131.7z"/>
	</g>
</g>
<g>
	<g>
		<path d="M291.814,0h-71.628c-8.284,0-15,6.716-15,15v55.476h101.628V15C306.814,6.716,300.098,0,291.814,0z"/>
	</g>
</g>
<g>
	<g>
		<polygon points="139.383,265.847 139.383,330.026 372.617,290.829 372.617,226.733 		"/>
	</g>
</g>
<g>
	<g>
		<path d="M139.383,360.448V497c0,8.284,6.716,15,15,15h203.233c8.284,0,15-6.716,15-15V321.25L139.383,360.448z"/>
	</g>
</g>
<g>
</g>
<g>
</g>
<g>
</g>
<g>
</g>
<g>
</g>
<g>
</g>
<g>
</g>
<g>
</g>
<g>
</g>
<g>
</g>
<g>
</g>
<g>
</g>
<g>
</g>
<g>
</g>
<g>
</g>
</svg>
